<?xml version="1.0" encoding="iso-8859-1"?>
<!-- Generator: Adobe Illustrator 19.0.0, SVG Export Plug-In . SVG Version: 6.00 Build 0)  -->
<svg version="1.1" id="Capa_1" xmlns="http://www.w3.org/2000/svg" xmlns:xlink="http://www.w3.org/1999/xlink" x="0px" y="0px"
	 viewBox="0 0 512 512" style="enable-background:new 0 0 512 512;" xml:space="preserve">
<g>
	<g>
		<path d="M106.059,156.71h-0.082c-4.143,0-7.459,3.357-7.459,7.5s3.398,7.5,7.541,7.5s7.5-3.357,7.5-7.5
			S110.203,156.71,106.059,156.71z"/>
	</g>
</g>
<g>
	<g>
		<path d="M501.636,343.874c0-2.683,1.138-10.642,2.454-19.856c4.597-32.167,13.137-91.943,3.543-128.523
			c-4.385-25.706-21.266-55.821-44.127-78.682c-25.689-25.69-54.646-38.057-79.43-33.921c-6.66,1.109-12.585,2.193-18.313,3.242
			c-35.466,6.489-51.649,9.452-92.084-10.767c-47.507-23.751-74.71-11.529-80.364-8.387c-10.268,3.278-22.358,4.136-34.061,4.965
			c-15.174,1.076-30.865,2.188-44.101,8.49c-25.031,11.92-47.841,97.024-54.492,134.382c-20.736,16.217-54.368,24.102-54.834,24.21
			c-2.983,0.683-5.253,3.109-5.734,6.132c-0.48,3.022,0.924,6.035,3.549,7.609c11.314,6.789,24.238,10.208,38.222,10.208
			c5.027,0,10.197-0.459,15.472-1.345c1.021,20.887,4.596,43.942,9.887,63.22c8.234,30.013,19.988,50.328,34.937,60.383
			c6.985,4.698,14.678,7.062,22.771,7.062c5.636,0,11.467-1.146,17.387-3.448c3.86-1.502,5.772-5.848,4.271-9.71
			c-1.501-3.858-5.843-5.769-9.71-4.271c-3.246,1.262-6.35,2.028-9.335,2.317c-0.197-0.069-0.396-0.136-0.601-0.189
			c-11.71-3.048-25.853-17.774-26.728-70.621c-0.442-26.701,2.908-52.772,4.367-62.735c21.394-8.445,49.769-28.096,59.073-34.737
			c2.039,2.17,3.975,4.024,5.643,5.525c2.598,2.338,5.757,3.656,8.991,3.961l12.335,103.618l-22.845,39.756
			c-2.178,3.79-3.541,7.914-4.052,12.258l-3.698,31.425c-0.231,1.976-0.801,3.88-1.69,5.66l-14.498,28.996
			c-1.163,2.325-1.038,5.086,0.328,7.298c1.366,2.211,3.78,3.557,6.38,3.557h86.923c8.664,0,15.714-7.049,15.714-15.714v-84.817
			l26.283-33.152c2.301,1.085,4.688,2.157,7.164,3.205c21.798,9.223,44.096,13.862,66.027,13.862
			c13.961,0,27.771-1.906,41.208-5.682l19.361,22.013c1.435,1.632,2.225,3.726,2.225,5.896v50.902c0,1.128-0.211,2.233-0.627,3.284
			l-11.852,29.94c-0.914,2.31-0.626,4.922,0.771,6.977c1.397,2.055,3.72,3.284,6.203,3.284h81.532c4.353,0,8.549-1.821,11.51-4.998
			c2.952-3.166,4.471-7.46,4.168-11.782C505.864,415.695,501.636,354.553,501.636,343.874z M85.214,306.435
			c0.203,12.723,1.181,24.053,2.921,33.993c-10.139-25.354-15.023-58.524-15.938-82.369c6.142-1.922,11.62-4.163,16.152-6.271
			C86.748,264.965,84.877,285.296,85.214,306.435z M30.844,247.06c13.845-5.042,31.465-13.099,43.97-24.592
			c4.862,2.541,11.397,6.892,14.218,12.149C79.16,240.017,55.071,251.176,30.844,247.06z M199.982,411.68l-11.128,24.278h-26.169
			l9.072-18.141c1.669-3.34,2.736-6.912,3.171-10.618l3.697-31.423c0.273-2.316,1-4.516,2.161-6.537l12.808-22.288l7.137,59.956
			C200.925,408.537,200.667,410.187,199.982,411.68z M253.185,326.284v-23.96c3.525,2.392,7.786,5.1,12.724,7.911L253.185,326.284z
			 M459.943,336.688v99.272h-0.714v-0.001h-38.244l7.789-19.68c1.114-2.816,1.68-5.778,1.68-8.805v-50.902
			c0-5.817-2.116-11.43-5.96-15.802l-45.872-52.155c-2.736-3.11-7.475-3.414-10.586-0.679s-3.414,7.475-0.679,10.586l15.406,17.516
			c-29.279,6.646-59.448,3.574-89.822-9.175c-20.504-8.606-34.885-19.254-39.756-23.117v-18.924c0-4.143-3.357-7.5-7.5-7.5
			s-7.5,3.357-7.5,7.5v170.425c0,0.394-0.319,0.713-0.713,0.713h-32.115l8.262-18.028c1.835-4.001,2.528-8.428,2.008-12.798
			l-22.971-192.964c2.269-2.139,4.546-4.363,6.797-6.64c2.912-2.946,2.886-7.694-0.06-10.607s-7.695-2.887-10.607,0.06
			c-2.845,2.877-5.729,5.662-8.576,8.279c-0.262,0.242-0.621,0.249-0.877,0.02c-6.247-5.621-17.076-17.164-19.417-31.313
			c-0.676-4.086-4.523-6.852-8.625-6.175c-4.086,0.676-6.851,4.537-6.175,8.625c1.417,8.566,5.007,16.235,9.22,22.699
			c-8.878,6.294-33.003,22.895-51.712,31.101c-6.047-12.111-20.178-18.987-25.204-21.114c4.613-22.501,11.525-47.13,19.105-67.8
			c14.113-38.49,23.368-44.507,25.081-45.322c10.675-5.083,24.293-6.048,38.711-7.07c6.358-0.451,12.823-0.911,19.207-1.747
			c-0.429,1.838-0.173,3.837,0.879,5.58c2.142,3.547,6.752,4.684,10.298,2.545c13.76-8.307,22.68-5.811,27.74-2.254
			c9.722,6.83,14.741,23.532,11.678,38.85c-2.355,11.776-8.771,24.942-19.069,39.133c-2.433,3.353-1.688,8.043,1.665,10.477
			c1.331,0.966,2.872,1.431,4.399,1.431c2.32,0,4.608-1.074,6.076-3.096c11.576-15.952,18.855-31.093,21.638-45.003
			c4.293-21.467-3.011-43.7-17.763-54.066c-1.269-0.891-2.798-1.827-4.569-2.69c10.813,0.314,25.622,3.288,44.477,12.715
			c44.917,22.459,65.013,18.781,101.494,12.105c5.671-1.038,11.535-2.111,18.079-3.202c19.939-3.318,44.136,7.512,66.356,29.732
			c20.845,20.845,36.162,47.975,39.988,70.818c0.001,0.005,0.002,0.011,0.003,0.017c0.002,0.013,0.005,0.027,0.007,0.04
			c4.83,28.983-9.001,65.176-20.113,94.257C465.61,311.329,459.943,326.16,459.943,336.688z M492.198,435.23
			c0.002,0.071,0.018,0.292-0.178,0.502c-0.141,0.151-0.321,0.228-0.538,0.228h-16.539v-99.272c0-7.759,5.758-22.827,11.855-38.78
			c2.669-6.984,5.484-14.359,8.182-21.968c-1.658,17.382-3.991,33.732-5.737,45.955c-1.569,10.979-2.605,18.23-2.605,21.98
			C486.637,354.736,490.526,411.381,492.198,435.23z"/>
	</g>
</g>
<g>
</g>
<g>
</g>
<g>
</g>
<g>
</g>
<g>
</g>
<g>
</g>
<g>
</g>
<g>
</g>
<g>
</g>
<g>
</g>
<g>
</g>
<g>
</g>
<g>
</g>
<g>
</g>
<g>
</g>
</svg>
