<?xml version="1.0" encoding="iso-8859-1"?>
<!-- Generator: Adobe Illustrator 16.0.0, SVG Export Plug-In . SVG Version: 6.00 Build 0)  -->
<!DOCTYPE svg PUBLIC "-//W3C//DTD SVG 1.1//EN" "http://www.w3.org/Graphics/SVG/1.1/DTD/svg11.dtd">
<svg version="1.1" id="Capa_1" xmlns="http://www.w3.org/2000/svg" xmlns:xlink="http://www.w3.org/1999/xlink" x="0px" y="0px"
	 width="40px" height="40px" viewBox="0 0 40 40" style="enable-background:new 0 0 40 40;" xml:space="preserve">
<g>
	<path d="M31.02,20c0,0,2.635-6.938,8.98-8.628C38.938,11.137,37.881,11,36.854,11c-5.182,0-8.459,3.404-10.221,6.025
		c-2.111-1.476-4.891-3.194-7.844-4.42c0.856-0.517,1.801-0.953,2.857-1.233C20.584,11.136,19.528,11,18.5,11
		c-1.142,0-2.184,0.176-3.146,0.462C14.167,11.172,12.983,11,11.833,11C3.412,11,0,20,0,20s3.411,9,11.833,9
		c1.15,0,2.334-0.172,3.521-0.462C16.315,28.824,17.357,29,18.5,29c1.029,0,2.085-0.137,3.146-0.372
		c-1.058-0.28-2.002-0.718-2.858-1.233c2.954-1.226,5.731-2.943,7.844-4.42C28.395,25.596,31.672,29,36.854,29
		c1.029,0,2.086-0.137,3.146-0.372C33.652,26.938,31.02,20,31.02,20z M6.417,20.001c-1.059,0-1.917-0.858-1.917-1.917
		s0.858-1.917,1.917-1.917s1.917,0.858,1.917,1.917S7.476,20.001,6.417,20.001z"/>
</g>
<g>
</g>
<g>
</g>
<g>
</g>
<g>
</g>
<g>
</g>
<g>
</g>
<g>
</g>
<g>
</g>
<g>
</g>
<g>
</g>
<g>
</g>
<g>
</g>
<g>
</g>
<g>
</g>
<g>
</g>
</svg>
