<?xml version="1.0" encoding="iso-8859-1"?>
<!-- Generator: Adobe Illustrator 19.0.0, SVG Export Plug-In . SVG Version: 6.00 Build 0)  -->
<svg version="1.1" id="Layer_1" xmlns="http://www.w3.org/2000/svg" xmlns:xlink="http://www.w3.org/1999/xlink" x="0px" y="0px"
	 viewBox="0 0 512 512" style="enable-background:new 0 0 512 512;" xml:space="preserve">
<g>
	<g>
		<path d="M511.904,197.351c-1.548-10.068-12.346-12.885-21.021-15.149c-5.231-1.365-11.739-3.064-14.006-5.614
			c-9.162-10.309-21.627-13.688-40.42-10.954c-12.744,1.853-38.722,11.927-48.235,15.732c-7.359-2.869-24.551-7.794-41.884-0.027
			c-11.221-3.995-47.294-15.79-82.08-15.79c-56.465,0-103.282,45.1-148.56,88.716c-36.945,35.589-71.84,69.204-109.017,76.58
			c-4.266,0.847-7.155,4.846-6.615,9.163c0.521,4.17,4.068,7.266,8.225,7.266c0.146,0,0.294-0.003,0.441-0.011
			c4.445-0.234,100.039-5.801,172.659-51.935c0.072,2.214,0.353,3.679,0.451,4.13c0.533,2.454,2.15,4.534,4.397,5.656l33.027,16.513
			c1.152,0.576,2.422,0.876,3.71,0.876h33.027c4.581,0,8.294-3.713,8.294-8.294s-3.712-8.294-8.294-8.294h-19.619
			c0.142-0.286,0.284-0.574,0.416-0.838c14.621-3.214,26.811-10.506,34.669-20.408c0.686,0.014,1.93,0.032,3.636,0.032
			c8.328,0,27.376-0.456,43.042-4.188c0.637,2.371,1.596,4.673,2.89,6.832l18.68,31.131c1.498,2.498,4.199,4.026,7.113,4.026h33.027
			c4.581,0,8.294-3.713,8.294-8.294s-3.712-8.294-8.294-8.294h-8.221v-16.499c1.455-0.094,2.943-0.31,4.456-0.625l39.866,31.893
			c1.471,1.177,3.298,1.817,5.181,1.817h24.771c4.581,0,8.294-3.713,8.294-8.294c0-4.58-3.712-8.294-8.294-8.294h-19.234
			l-15.083-36.31c6.806-5.056,13.828-10.689,20.973-16.422c16.528-13.26,37.096-29.763,46.373-29.763h16.514
			c3.142,0,6.013-1.775,7.418-4.585l8.257-16.513C511.892,200.786,512.164,199.049,511.904,197.351z M393.642,281.589
			c1.315-0.749,2.642-1.54,3.981-2.372l3.458,8.324L393.642,281.589z M490.324,206.832h-11.389
			c-15.108,0-34.407,15.485-56.752,33.413c-10.115,8.116-21.608,17.336-31.809,23.902c9.29-9.944,18.516-26.367,14.156-50.498
			c-0.814-4.507-5.123-7.504-9.637-6.686c-4.507,0.815-7.501,5.129-6.687,9.636c6.374,35.267-26.359,48.023-27.723,48.537
			c-3.266,1.199-5.436,4.307-5.436,7.785v32.99h-3.523l-16.263-27.105c-2.059-3.434-1.956-7.805,0.264-11.136l9.947-14.92
			c2.541-3.812,1.511-8.961-2.3-11.502c-3.811-2.541-8.961-1.511-11.501,2.3l-9.947,14.921c-0.957,1.435-1.747,2.949-2.401,4.51
			c-11.887,3.914-29.324,4.872-39.575,5.075c3.193-12.82-0.408-25.5-9.854-34.246c-3.361-3.112-8.608-2.909-11.721,0.45
			c-3.112,3.362-2.911,8.609,0.45,11.721c5.233,4.846,6.957,11.847,4.73,19.208c-2.913,9.625-13.227,21.067-33.441,24.316
			c-4.225,0.681-5.57,3.376-7.271,6.79c-0.691,1.385-3.086,6.228-3.365,6.791l-21.215-10.607c0.339-3.31,1.724-8.543,6.493-14.221
			c2.759-3.285,2.558-8.134-0.467-11.179c-3.023-3.044-7.871-3.281-11.177-0.541c-38.546,31.939-91.172,48.181-130.455,56.317
			c21.795-15.266,42.929-35.625,64.748-56.644c42.909-41.334,87.279-84.075,137.052-84.075c37.828,0,79.165,15.796,79.576,15.954
			c2.285,0.886,4.852,0.713,7-0.472c15.694-8.659,33.332,0.036,33.475,0.108c2.16,1.115,4.7,1.226,6.946,0.305
			c9.544-3.908,36.697-14.397,47.593-15.981c16.909-2.458,22.097,1.579,25.634,5.559c5.608,6.31,14.431,8.612,22.215,10.645
			c2.093,0.546,4.858,1.267,6.925,1.988L490.324,206.832z"/>
	</g>
</g>
<g>
</g>
<g>
</g>
<g>
</g>
<g>
</g>
<g>
</g>
<g>
</g>
<g>
</g>
<g>
</g>
<g>
</g>
<g>
</g>
<g>
</g>
<g>
</g>
<g>
</g>
<g>
</g>
<g>
</g>
</svg>
