<?xml version="1.0" encoding="iso-8859-1"?>
<!-- Generator: Adobe Illustrator 19.0.0, SVG Export Plug-In . SVG Version: 6.00 Build 0)  -->
<svg version="1.1" id="Layer_1" xmlns="http://www.w3.org/2000/svg" xmlns:xlink="http://www.w3.org/1999/xlink" x="0px" y="0px"
	 viewBox="0 0 512 512" style="enable-background:new 0 0 512 512;" xml:space="preserve">
<g>
	<g>
		<path d="M436.254,498.458l-29.18-38.159c11.989-110.761,3.577-204.273-25.01-277.995c-23.339-60.188-53.248-89.522-66.019-102.049
			c-1.666-1.633-3.547-3.48-4.085-4.15c-1.009-1.623-2.636-5.208-4.356-8.998C298.44,46.911,281.379,9.32,245.489,1.64
			c-35.869-7.677-64.71,13.635-74.355,21.988c-7.364-1.283-22.96-3.421-39.532-2.13c-40.525,3.156-53.57,23.802-57.379,40.568
			c-0.612,2.691,0.135,5.513,1.997,7.55c1.607,1.758,3.868,2.74,6.216,2.74c0.374,0,0.749-0.025,1.125-0.075
			c0.598-0.081,58.924-7.804,86.074-0.735c2.348,1.988,6.933,5.724,12.613,9.623c-11.25,18.301-37.569,67.86-32.551,124.055
			c5.399,60.459,49.78,205.673,60.546,240.257c-4.755,2.285-11.212,5.817-17.726,10.712c-17.24,12.953-26.656,29.244-27.233,47.11
			c-0.073,2.28,0.781,4.493,2.368,6.132c1.586,1.64,3.77,2.564,6.052,2.564h146.085c0.006,0,0.012,0.001,0.018,0.001
			s0.011-0.001,0.017-0.001h109.738c3.206,0,6.133-1.818,7.553-4.693C438.535,504.435,438.202,501.005,436.254,498.458z
			 M165.28,53.526c-21.631-3.279-51.466-1.31-69.158,0.398c9.823-12.823,29.172-15.981,45.858-15.981
			c9.297,0,17.768,0.981,23.3,1.817V53.526z M183.483,495.151c5.77-20.234,28.092-31.869,36.585-35.64l66.289,35.64H183.483z
			 M328.53,495.151c0.325-11.725,0.703-33.945-0.073-59.236c-0.142-4.65-3.989-8.338-8.679-8.161
			c-4.65,0.143-8.303,4.028-8.161,8.678c0.665,21.687,0.468,41.058,0.195,53.277l-84.25-45.296
			c-7.647-24.492-55.669-180.043-61.083-240.687c-4.558-51.047,20.353-97.635,30.333-113.99c3.683,1.76,7.426,3.194,11.033,4.028
			c10.132,2.345,19.368-4.074,27.518-9.73c12.874-8.939,14.886-8.565,17.771-5.101c1.002,1.203,1.157,1.857,1.145,1.967
			c-0.293,2.443-7.633,7.884-11.577,10.807c-9.172,6.798-20.586,15.258-19.745,27.941c0.4,6.034,2.774,16.477,6.06,30.928
			c2.782,12.234,5.934,26.1,8.466,40.004c0.832,4.577,5.223,7.603,9.798,6.779c4.577-0.833,7.612-5.221,6.779-9.798
			c-2.598-14.264-5.794-28.32-8.613-40.721c-2.879-12.662-5.366-23.599-5.679-28.306c-0.232-3.509,7.396-9.162,12.967-13.291
			c8.414-6.237,17.115-12.686,18.273-22.336c0.616-5.125-1.041-10.088-4.922-14.751c-13.693-16.451-30.368-4.876-40.329,2.039
			c-4.749,3.299-11.246,7.817-14.12,7.154c-9.487-2.19-22.643-11.739-29.505-17.328v-23.6c7.51-6.441,31.51-24.365,59.834-18.302
			c27.584,5.904,42.36,38.462,50.298,55.952c2.188,4.823,3.917,8.633,5.571,11.219c1.211,1.893,3.06,3.706,6.414,6.997
			c11.995,11.765,40.083,39.314,62.109,96.111c27.884,71.91,35.826,163.897,23.603,273.404c-0.24,2.159,0.362,4.327,1.68,6.052
			l20.876,27.3H328.53z"/>
	</g>
</g>
<g>
	<g>
		<path d="M326.854,403.78c-3.972-55.851-13.096-90.817-27.84-106.582c1.953-9.093,4.928-17.367,9.51-23.888
			c17.64-25.093,16.686-49.434,12.779-65.436c-4.19-17.154-12.571-28.488-12.926-28.962c-2.786-3.725-8.066-4.485-11.792-1.698
			c-3.725,2.787-4.485,8.067-1.698,11.792c0.27,0.361,26.659,36.485-0.147,74.615c-15.599,22.189-16.106,56.271-16.513,83.657
			c-0.161,10.844-0.312,21.085-1.389,28.665c-1.251,8.812-3.237,10.157-3.252,10.166c-0.015,0.004-1.574,0.446-6.024-1.779
			c-33.311-16.655-21.782-101.478-11.361-134.042c2.881-8.999,3.342-21.812,1.406-39.169c-0.516-4.623-4.672-7.952-9.306-7.439
			c-4.623,0.516-7.955,4.682-7.439,9.306c1.644,14.743,1.406,25.566-0.708,32.167c-7.897,24.685-29.187,129.717,19.872,154.247
			c4.797,2.399,9.212,3.599,13.212,3.599c3.325,0,6.363-0.83,9.095-2.49c12.062-7.331,12.348-26.479,12.742-52.979
			c0.109-7.359,0.229-15.248,0.658-23.172c5.641,14.225,11.329,38.655,14.313,80.621c0.316,4.438,4.013,7.827,8.395,7.827
			c0.201,0,0.403-0.007,0.607-0.021C323.69,412.452,327.184,408.421,326.854,403.78z"/>
	</g>
</g>
<g>
	<g>
		<path d="M213.829,33.439c-5.356,0-9.713,4.349-9.713,9.696s4.357,9.696,9.713,9.696c5.356,0,9.711-4.349,9.711-9.696
			S219.185,33.439,213.829,33.439z"/>
	</g>
</g>
<g>
</g>
<g>
</g>
<g>
</g>
<g>
</g>
<g>
</g>
<g>
</g>
<g>
</g>
<g>
</g>
<g>
</g>
<g>
</g>
<g>
</g>
<g>
</g>
<g>
</g>
<g>
</g>
<g>
</g>
</svg>
