<?xml version="1.0" encoding="iso-8859-1"?>
<!-- Generator: Adobe Illustrator 19.0.0, SVG Export Plug-In . SVG Version: 6.00 Build 0)  -->
<svg version="1.1" id="Layer_1" xmlns="http://www.w3.org/2000/svg" xmlns:xlink="http://www.w3.org/1999/xlink" x="0px" y="0px"
	 viewBox="0 0 512 512" style="enable-background:new 0 0 512 512;" xml:space="preserve">
<g>
	<g>
		<path d="M512,105.047c0-10.39-4.047-20.159-11.394-27.506c-7.348-7.349-17.116-11.395-27.507-11.395
			c-7.611,0-14.884,2.18-21.12,6.229c-11.738-4.805-24.159-7.238-37.01-7.238c-12.836,0-25.251,2.427-36.977,7.22
			c-0.015,0.006-0.03,0.011-0.045,0.016c-6.236-4.048-13.508-6.228-21.118-6.228c-10.39,0-20.159,4.047-27.508,11.394
			c-13.404,13.404-14.952,34.234-4.664,49.366c-3.552,10.164-5.093,20.816-4.578,31.752c0.029,0.605,0.072,1.207,0.113,1.808
			H151.916c-0.331,0-0.674,0.002-1.008,0.012c-22.296,0.27-43.267,9.81-58.124,26.302c-32.027,2.459-56.469,29.26-56.469,63.053
			c0,0,0.004,60.921,0.004,61.356c0,4.462-3.63,8.091-8.091,8.091c-4.463,0-8.092-3.63-8.092-8.091
			c0-5.56-4.508-10.068-10.068-10.068C4.508,301.121,0,305.629,0,311.189c0,15.565,12.664,28.228,28.229,28.228
			c15.565,0,28.228-12.663,28.228-28.228c0-0.445-0.004-61.356-0.004-61.356c0-16.434,8.353-30.448,20.953-37.74
			c-3.341,8.896-5.112,18.382-5.112,27.998v107c0,0.013-0.002,0.025-0.002,0.038v61.849c0,20.889,16.998,37.882,37.892,37.882
			l104.445,0.002c9.947,0,18.042-8.094,18.042-18.042c0-18.877-12.142-35.248-29.378-41.168v-17.587h4.289
			c24.639,0,46.056-15.732,53.768-38.439h9.122v77.347c0,20.892,16.997,37.889,37.887,37.889l104.446,0.002
			c9.947,0,18.041-8.094,18.041-18.042c0-19.461-12.554-35.973-30.405-41.54v-87.635c7.462-9.166,13.011-19.971,15.997-31.846
			c27.004-0.626,50.118-18.391,57.742-44.08c21.184-15.011,34.419-39.01,35.648-65.06c0.515-10.923-1.023-21.567-4.567-31.721
			C509.638,120.532,512,112.972,512,105.047z M212.433,426.726h-34.024c-0.86-17.98-12.721-33.371-29.323-39.078v-17.585h4.294
			c10.851,0,21.07-3.06,29.776-8.413v33.955c0,5.084,3.785,9.373,8.84,9.988C202.999,406.952,211.466,415.852,212.433,426.726z
			 M207.58,349.927h-10.776c4.492-5.316,8.025-11.499,10.336-18.303h32.204C232.962,342.698,221.021,349.927,207.58,349.927z
			 M308.361,426.724c-9.792,0-17.754-7.964-17.754-17.752v-87.419c0-5.56-4.508-10.068-10.068-10.068
			c-0.024,0-0.047,0.003-0.072,0.003h-81.081v0.003c-4.792-0.009-9.042,3.407-9.916,8.286c-3.128,17.471-18.306,30.15-36.09,30.15
			h-14.362c-5.56,0-10.068,4.508-10.068,10.068v35.609c0,5.086,3.794,9.374,8.842,9.993c11.008,1.351,19.471,10.257,20.444,21.126
			h-48.052c-9.791,0-17.756-7.961-17.756-17.747v-61.377c0-0.013,0.002-0.025,0.002-0.038V240.09
			c0-13.736,4.791-27.131,13.494-37.723c10.033-12.226,24.349-19.844,39.893-21.431l-0.202,62.483
			c-0.02,5.558,4.471,10.078,10.027,10.098h0.041c5.537,0,10.048-4.48,10.068-10.038l0.203-62.878h23.235v33.228
			c0,5.558,4.51,10.068,10.068,10.068c5.558,0,10.068-4.51,10.068-10.068v-33.228h23.207v72.614c0,5.558,4.51,10.068,10.068,10.068
			c5.558,0,10.068-4.51,10.068-10.068v-72.614h23.207v33.228c0,5.558,4.51,10.068,10.068,10.068c5.558,0,10.068-4.51,10.068-10.068
			v-33.228h28.067c5.571,17.25,16.606,32.45,31.658,43.115c5.959,20.037,21.332,35.258,40.625,41.284
			c-7.612,26.32-32.044,45.199-60.18,45.199v0.001h-0.001c-5.56,0-10.068,4.508-10.068,10.068v75.219
			c0,5.205,3.968,9.551,9.152,10.025c11.409,1.044,20.175,9.995,21.153,21.211H308.361z M410.619,426.726h-34.032
			c-0.864-18.552-13.146-34.082-30.342-39.445v-57.583c12.339-1.514,23.921-5.769,34.06-12.18v77.968
			c0,5.205,3.967,9.555,9.152,10.027C400.873,406.56,409.643,415.509,410.619,426.726z M490.108,116.959
			c-4.979,2.211-7.309,7.996-5.207,13.054c3.643,8.771,5.264,18.094,4.811,27.699c-0.986,20.982-12.107,40.377-29.897,51.622
			l0.004,0.008c-2.076,1.371-3.656,3.501-4.262,6.117c-3.698,15.962-16.094,27.872-31.543,31.257v-17.198
			c4.3-1.404,8.243-3.803,11.535-7.096c3.539-3.538,3.539-9.275-0.001-12.814c-3.538-3.539-9.276-3.538-12.814,0.001
			c-2.081,2.081-4.844,3.227-7.781,3.227c-2.935,0-5.7-1.146-7.781-3.229c-3.539-3.538-9.275-3.538-12.815,0
			c-3.538,3.539-3.538,9.276,0,12.815c3.293,3.292,7.236,5.692,11.535,7.095v17.192c-15.443-3.392-27.838-15.304-31.544-31.267
			c-0.598-2.573-2.14-4.675-4.168-6.047l0.005-0.009c-17.79-11.246-29.005-30.695-29.992-51.677
			c-0.453-9.605,1.168-18.928,4.812-27.697c2.097-5.044-0.215-10.809-5.166-13.034c-5.695-8.103-4.944-19.387,2.294-26.626
			c3.925-3.925,9.143-6.086,14.692-6.086c5.55,0,10.768,2.162,14.691,6.086c0.069,0.069,0.145,0.128,0.216,0.194v19.074
			c0,5.56,4.508,10.068,10.068,10.068c5.56,0,10.068-4.508,10.068-10.068V88.753c4.247-1.321,8.598-2.252,13.03-2.819v38.152
			c0,5.558,4.501,10.068,10.068,10.068c5.558,0,10.068-4.51,10.068-10.068V85.919c4.424,0.568,8.769,1.508,13.013,2.828v20.877
			c0,5.56,4.508,10.068,10.068,10.068c5.56,0,10.068-4.508,10.068-10.068V90.555c0.073-0.069,0.15-0.129,0.222-0.201
			c3.924-3.924,9.142-6.086,14.692-6.086s10.768,2.162,14.692,6.086c3.924,3.924,6.086,9.142,6.086,14.691
			C493.879,109.374,492.548,113.491,490.108,116.959z"/>
	</g>
</g>
<g>
	<g>
		<circle cx="372.89" cy="159.837" r="10.298"/>
	</g>
</g>
<g>
	<g>
		<circle cx="456.94" cy="159.837" r="10.298"/>
	</g>
</g>
<g>
</g>
<g>
</g>
<g>
</g>
<g>
</g>
<g>
</g>
<g>
</g>
<g>
</g>
<g>
</g>
<g>
</g>
<g>
</g>
<g>
</g>
<g>
</g>
<g>
</g>
<g>
</g>
<g>
</g>
</svg>
